<svg xmlns="http://www.w3.org/2000/svg" width="906" height="470" viewBox="0 0 906 470" role="img" aria-labelledby="title desc">
  <title id="title">Get QPS by Replica Count</title>
  <desc id="desc">success_qps benchmark chart for replica_count</desc>
  <style>
    .axis { stroke: #334155; stroke-width: 1.2; }
    .grid { stroke: #e2e8f0; stroke-width: 1; }
    .label { fill: #334155; font-family: -apple-system, BlinkMacSystemFont, 'Segoe UI', sans-serif; }
    .title { fill: #0f172a; font-weight: 700; font-family: -apple-system, BlinkMacSystemFont, 'Segoe UI', sans-serif; }
  </style>
  <rect width="100%" height="100%" fill="#ffffff"/>
  <text x="453.0" y="30" text-anchor="middle" font-size="18" class="title">Get QPS by Replica Count</text>
  <line x1="88" y1="390.0" x2="818" y2="390.0" class="grid"/>
  <text x="76" y="394.0" text-anchor="end" font-size="12" class="label">0</text>
  <line x1="88" y1="322.8" x2="818" y2="322.8" class="grid"/>
  <text x="76" y="326.8" text-anchor="end" font-size="12" class="label">9500</text>
  <line x1="88" y1="255.6" x2="818" y2="255.6" class="grid"/>
  <text x="76" y="259.6" text-anchor="end" font-size="12" class="label">19000</text>
  <line x1="88" y1="188.4" x2="818" y2="188.4" class="grid"/>
  <text x="76" y="192.4" text-anchor="end" font-size="12" class="label">28500</text>
  <line x1="88" y1="121.2" x2="818" y2="121.2" class="grid"/>
  <text x="76" y="125.2" text-anchor="end" font-size="12" class="label">38000</text>
  <line x1="88" y1="54.0" x2="818" y2="54.0" class="grid"/>
  <text x="76" y="58.0" text-anchor="end" font-size="12" class="label">47500</text>
  <line x1="88" y1="390" x2="818" y2="390" class="axis"/>
  <line x1="88" y1="54" x2="88" y2="390" class="axis"/>
  <polyline points="88.0,118.8 453.0,313.0 818.0,348.7" fill="none" stroke="#059669" stroke-width="3" stroke-linejoin="round" stroke-linecap="round"/>
  <circle cx="88.0" cy="118.8" r="5" fill="#ffffff" stroke="#059669" stroke-width="2.5"><title>replica_count=1, success_qps=38334.88, avg_us=416.44, p95_us=636, p99_us=763</title></circle>
  <text x="88.0" y="418" text-anchor="middle" font-size="12" class="label">1</text>
  <circle cx="453.0" cy="313.0" r="5" fill="#ffffff" stroke="#059669" stroke-width="2.5"><title>replica_count=3, success_qps=10883.83, avg_us=1468.96, p95_us=1981, p99_us=2302</title></circle>
  <text x="453.0" y="418" text-anchor="middle" font-size="12" class="label">3</text>
  <circle cx="818.0" cy="348.7" r="5" fill="#ffffff" stroke="#059669" stroke-width="2.5"><title>replica_count=5, success_qps=5836.62, avg_us=2739.83, p95_us=3895, p99_us=6252</title></circle>
  <text x="818.0" y="418" text-anchor="middle" font-size="12" class="label">5</text>
<text x="453.0" y="452" text-anchor="middle" font-size="13" class="label">replica_count</text>
<text x="22" y="222.0" text-anchor="middle" font-size="13" class="label" transform="rotate(-90 22 222.0)">success_qps</text>
</svg>
