<svg xmlns="http://www.w3.org/2000/svg" width="906" height="470" viewBox="0 0 906 470" role="img" aria-labelledby="title desc">
  <title id="title">Get QPS by Value Size</title>
  <desc id="desc">success_qps benchmark chart for value_size bytes</desc>
  <style>
    .axis { stroke: #334155; stroke-width: 1.2; }
    .grid { stroke: #e2e8f0; stroke-width: 1; }
    .label { fill: #334155; font-family: -apple-system, BlinkMacSystemFont, 'Segoe UI', sans-serif; }
    .title { fill: #0f172a; font-weight: 700; font-family: -apple-system, BlinkMacSystemFont, 'Segoe UI', sans-serif; }
  </style>
  <rect width="100%" height="100%" fill="#ffffff"/>
  <text x="453.0" y="30" text-anchor="middle" font-size="18" class="title">Get QPS by Value Size</text>
  <line x1="88" y1="390.0" x2="818" y2="390.0" class="grid"/>
  <text x="76" y="394.0" text-anchor="end" font-size="12" class="label">0</text>
  <line x1="88" y1="322.8" x2="818" y2="322.8" class="grid"/>
  <text x="76" y="326.8" text-anchor="end" font-size="12" class="label">3000</text>
  <line x1="88" y1="255.6" x2="818" y2="255.6" class="grid"/>
  <text x="76" y="259.6" text-anchor="end" font-size="12" class="label">6000</text>
  <line x1="88" y1="188.4" x2="818" y2="188.4" class="grid"/>
  <text x="76" y="192.4" text-anchor="end" font-size="12" class="label">9000</text>
  <line x1="88" y1="121.2" x2="818" y2="121.2" class="grid"/>
  <text x="76" y="125.2" text-anchor="end" font-size="12" class="label">12000</text>
  <line x1="88" y1="54.0" x2="818" y2="54.0" class="grid"/>
  <text x="76" y="58.0" text-anchor="end" font-size="12" class="label">15000</text>
  <line x1="88" y1="390" x2="818" y2="390" class="axis"/>
  <line x1="88" y1="54" x2="88" y2="390" class="axis"/>
  <polyline points="88.0,145.0 234.0,158.1 380.0,142.9 526.0,151.3 672.0,163.8 818.0,145.4" fill="none" stroke="#059669" stroke-width="3" stroke-linejoin="round" stroke-linecap="round"/>
  <circle cx="88.0" cy="145.0" r="5" fill="#ffffff" stroke="#059669" stroke-width="2.5"><title>value_size bytes=16, success_qps=10935.54, avg_us=1461.99, p95_us=1922, p99_us=2209</title></circle>
  <text x="88.0" y="418" text-anchor="middle" font-size="12" class="label">16</text>
  <circle cx="234.0" cy="158.1" r="5" fill="#ffffff" stroke="#059669" stroke-width="2.5"><title>value_size bytes=64, success_qps=10354.30, avg_us=1544.12, p95_us=2080, p99_us=2454</title></circle>
  <text x="234.0" y="418" text-anchor="middle" font-size="12" class="label">64</text>
  <circle cx="380.0" cy="142.9" r="5" fill="#ffffff" stroke="#059669" stroke-width="2.5"><title>value_size bytes=128, success_qps=11030.81, avg_us=1449.40, p95_us=1905, p99_us=2316</title></circle>
  <text x="380.0" y="418" text-anchor="middle" font-size="12" class="label">128</text>
  <circle cx="526.0" cy="151.3" r="5" fill="#ffffff" stroke="#059669" stroke-width="2.5"><title>value_size bytes=512, success_qps=10654.60, avg_us=1500.46, p95_us=1962, p99_us=2329</title></circle>
  <text x="526.0" y="418" text-anchor="middle" font-size="12" class="label">512</text>
  <circle cx="672.0" cy="163.8" r="5" fill="#ffffff" stroke="#059669" stroke-width="2.5"><title>value_size bytes=1024, success_qps=10098.35, avg_us=1583.37, p95_us=2301, p99_us=3203</title></circle>
  <text x="672.0" y="418" text-anchor="middle" font-size="12" class="label">1024</text>
  <circle cx="818.0" cy="145.4" r="5" fill="#ffffff" stroke="#059669" stroke-width="2.5"><title>value_size bytes=4096, success_qps=10918.96, avg_us=1464.22, p95_us=1900, p99_us=2173</title></circle>
  <text x="818.0" y="418" text-anchor="middle" font-size="12" class="label">4096</text>
<text x="453.0" y="452" text-anchor="middle" font-size="13" class="label">value_size bytes</text>
<text x="22" y="222.0" text-anchor="middle" font-size="13" class="label" transform="rotate(-90 22 222.0)">success_qps</text>
</svg>
