<svg xmlns="http://www.w3.org/2000/svg" width="860" height="480" viewBox="0 0 860 480" role="img" aria-labelledby="title desc">
  <title id="title">Mixed Read Ratio</title>
  <desc id="desc">success_qps benchmark chart for read_ratio</desc>
  <rect width="100%" height="100%" fill="#ffffff"/>
  <style>text{font-family:Arial,sans-serif}.axis{stroke:#374151}.grid{stroke:#e5e7eb}.tick{fill:#6b7280}.label{fill:#374151}.qps-label{fill:#111827;font-size:11px;font-weight:600}</style>
<text x="88" y="34" font-size="20" font-weight="700" fill="#111827">Mixed Read Ratio</text>
  <rect x="88" y="72" width="730" height="326" fill="#f9fafb" stroke="#e5e7eb" stroke-width="1"/>
<line x1="88" y1="398.0" x2="818" y2="398.0" class="grid" stroke-width="1"/>
<text x="76" y="402.0" text-anchor="end" font-size="12" class="tick">0</text>
<line x1="88" y1="332.8" x2="818" y2="332.8" class="grid" stroke-width="1"/>
<text x="76" y="336.8" text-anchor="end" font-size="12" class="tick">2000</text>
<line x1="88" y1="267.6" x2="818" y2="267.6" class="grid" stroke-width="1"/>
<text x="76" y="271.6" text-anchor="end" font-size="12" class="tick">4000</text>
<line x1="88" y1="202.4" x2="818" y2="202.4" class="grid" stroke-width="1"/>
<text x="76" y="206.4" text-anchor="end" font-size="12" class="tick">6000</text>
<line x1="88" y1="137.2" x2="818" y2="137.2" class="grid" stroke-width="1"/>
<text x="76" y="141.2" text-anchor="end" font-size="12" class="tick">8000</text>
<line x1="88" y1="72.0" x2="818" y2="72.0" class="grid" stroke-width="1"/>
<text x="76" y="76.0" text-anchor="end" font-size="12" class="tick">10000</text>
<line x1="88" y1="72" x2="88" y2="398" class="axis" stroke-width="1.2"/>
<line x1="88" y1="398" x2="818" y2="398" class="axis" stroke-width="1.2"/>
<line x1="88.0" y1="398" x2="88.0" y2="404" class="axis" stroke-width="1"/>
<text x="88.0" y="423" text-anchor="middle" font-size="12" fill="#374151">0</text>
<line x1="270.5" y1="398" x2="270.5" y2="404" class="axis" stroke-width="1"/>
<text x="270.5" y="423" text-anchor="middle" font-size="12" fill="#374151">0.50</text>
<line x1="453.0" y1="398" x2="453.0" y2="404" class="axis" stroke-width="1"/>
<text x="453.0" y="423" text-anchor="middle" font-size="12" fill="#374151">0.80</text>
<line x1="635.5" y1="398" x2="635.5" y2="404" class="axis" stroke-width="1"/>
<text x="635.5" y="423" text-anchor="middle" font-size="12" fill="#374151">0.95</text>
<line x1="818.0" y1="398" x2="818.0" y2="404" class="axis" stroke-width="1"/>
<text x="818.0" y="423" text-anchor="middle" font-size="12" fill="#374151">1</text>
  <polyline fill="none" stroke="#7c3aed" stroke-width="3" stroke-linecap="round" stroke-linejoin="round" points="88.0,127.6 270.5,162.0 453.0,152.3 635.5,127.7 818.0,109.6"/>
  <rect x="92.0" y="97.6" width="47.0" height="20" rx="4" fill="#ffffff" stroke="#d1d5db" stroke-width="1"/>
<text x="115.5" y="111.6" text-anchor="middle" class="qps-label">8,293</text>
  <rect x="247.0" y="132.0" width="47.0" height="20" rx="4" fill="#ffffff" stroke="#d1d5db" stroke-width="1"/>
<text x="270.5" y="146.0" text-anchor="middle" class="qps-label">7,240</text>
  <rect x="429.5" y="122.3" width="47.0" height="20" rx="4" fill="#ffffff" stroke="#d1d5db" stroke-width="1"/>
<text x="453.0" y="136.3" text-anchor="middle" class="qps-label">7,538</text>
  <rect x="612.0" y="97.7" width="47.0" height="20" rx="4" fill="#ffffff" stroke="#d1d5db" stroke-width="1"/>
<text x="635.5" y="111.7" text-anchor="middle" class="qps-label">8,292</text>
  <rect x="767.0" y="79.6" width="47.0" height="20" rx="4" fill="#ffffff" stroke="#d1d5db" stroke-width="1"/>
<text x="790.5" y="93.6" text-anchor="middle" class="qps-label">8,846</text>
  <circle cx="88.0" cy="127.6" r="5" fill="#ffffff" stroke="#7c3aed" stroke-width="2.5"><title>read_ratio=0, success_qps=8293.12, avg_us=1928.18, p95_us=3007, p99_us=6316</title></circle>
  <circle cx="270.5" cy="162.0" r="5" fill="#ffffff" stroke="#7c3aed" stroke-width="2.5"><title>read_ratio=0.50, success_qps=7239.59, avg_us=2208.84, p95_us=4867, p99_us=7441</title></circle>
  <circle cx="453.0" cy="152.3" r="5" fill="#ffffff" stroke="#7c3aed" stroke-width="2.5"><title>read_ratio=0.80, success_qps=7537.85, avg_us=2121.47, p95_us=3507, p99_us=4686</title></circle>
  <circle cx="635.5" cy="127.7" r="5" fill="#ffffff" stroke="#7c3aed" stroke-width="2.5"><title>read_ratio=0.95, success_qps=8292.30, avg_us=1928.37, p95_us=3015, p99_us=3728</title></circle>
  <circle cx="818.0" cy="109.6" r="5" fill="#ffffff" stroke="#7c3aed" stroke-width="2.5"><title>read_ratio=1, success_qps=8846.28, avg_us=1807.47, p95_us=2429, p99_us=2939</title></circle>
<text x="453.0" y="452" text-anchor="middle" font-size="13" class="label">read_ratio</text>
<text x="22" y="235.0" text-anchor="middle" font-size="13" class="label" transform="rotate(-90 22 235.0)">success_qps</text>
</svg>
