<svg xmlns="http://www.w3.org/2000/svg" width="860" height="480" viewBox="0 0 860 480" role="img" aria-labelledby="title desc">
  <title id="title">Put Shard Count</title>
  <desc id="desc">success_qps benchmark chart for shard_count</desc>
  <rect width="100%" height="100%" fill="#ffffff"/>
  <style>text{font-family:Arial,sans-serif}.axis{stroke:#374151}.grid{stroke:#e5e7eb}.tick{fill:#6b7280}.label{fill:#374151}.qps-label{fill:#111827;font-size:11px;font-weight:600}</style>
<text x="88" y="34" font-size="20" font-weight="700" fill="#111827">Put Shard Count</text>
  <rect x="88" y="72" width="730" height="326" fill="#f9fafb" stroke="#e5e7eb" stroke-width="1"/>
<line x1="88" y1="398.0" x2="818" y2="398.0" class="grid" stroke-width="1"/>
<text x="76" y="402.0" text-anchor="end" font-size="12" class="tick">0</text>
<line x1="88" y1="332.8" x2="818" y2="332.8" class="grid" stroke-width="1"/>
<text x="76" y="336.8" text-anchor="end" font-size="12" class="tick">2000</text>
<line x1="88" y1="267.6" x2="818" y2="267.6" class="grid" stroke-width="1"/>
<text x="76" y="271.6" text-anchor="end" font-size="12" class="tick">4000</text>
<line x1="88" y1="202.4" x2="818" y2="202.4" class="grid" stroke-width="1"/>
<text x="76" y="206.4" text-anchor="end" font-size="12" class="tick">6000</text>
<line x1="88" y1="137.2" x2="818" y2="137.2" class="grid" stroke-width="1"/>
<text x="76" y="141.2" text-anchor="end" font-size="12" class="tick">8000</text>
<line x1="88" y1="72.0" x2="818" y2="72.0" class="grid" stroke-width="1"/>
<text x="76" y="76.0" text-anchor="end" font-size="12" class="tick">10000</text>
<line x1="88" y1="72" x2="88" y2="398" class="axis" stroke-width="1.2"/>
<line x1="88" y1="398" x2="818" y2="398" class="axis" stroke-width="1.2"/>
<line x1="88.0" y1="398" x2="88.0" y2="404" class="axis" stroke-width="1"/>
<text x="88.0" y="423" text-anchor="middle" font-size="12" fill="#374151">1</text>
<line x1="331.3" y1="398" x2="331.3" y2="404" class="axis" stroke-width="1"/>
<text x="331.3" y="423" text-anchor="middle" font-size="12" fill="#374151">2</text>
<line x1="574.7" y1="398" x2="574.7" y2="404" class="axis" stroke-width="1"/>
<text x="574.7" y="423" text-anchor="middle" font-size="12" fill="#374151">4</text>
<line x1="818.0" y1="398" x2="818.0" y2="404" class="axis" stroke-width="1"/>
<text x="818.0" y="423" text-anchor="middle" font-size="12" fill="#374151">8</text>
  <polyline fill="none" stroke="#2563eb" stroke-width="3" stroke-linecap="round" stroke-linejoin="round" points="88.0,107.3 331.3,133.8 574.7,201.2 818.0,177.4"/>
  <rect x="92.0" y="117.3" width="47.0" height="20" rx="4" fill="#ffffff" stroke="#d1d5db" stroke-width="1"/>
<text x="115.5" y="131.3" text-anchor="middle" class="qps-label">8,916</text>
  <rect x="307.8" y="103.8" width="47.0" height="20" rx="4" fill="#ffffff" stroke="#d1d5db" stroke-width="1"/>
<text x="331.3" y="117.8" text-anchor="middle" class="qps-label">8,104</text>
  <rect x="551.2" y="171.2" width="47.0" height="20" rx="4" fill="#ffffff" stroke="#d1d5db" stroke-width="1"/>
<text x="574.7" y="185.2" text-anchor="middle" class="qps-label">6,038</text>
  <rect x="767.0" y="147.4" width="47.0" height="20" rx="4" fill="#ffffff" stroke="#d1d5db" stroke-width="1"/>
<text x="790.5" y="161.4" text-anchor="middle" class="qps-label">6,766</text>
  <circle cx="88.0" cy="107.3" r="5" fill="#ffffff" stroke="#2563eb" stroke-width="2.5"><title>shard_count=1, success_qps=8916.23, avg_us=1793.37, p95_us=2516, p99_us=6504</title></circle>
  <circle cx="331.3" cy="133.8" r="5" fill="#ffffff" stroke="#2563eb" stroke-width="2.5"><title>shard_count=2, success_qps=8104.08, avg_us=1973.18, p95_us=3275, p99_us=6012</title></circle>
  <circle cx="574.7" cy="201.2" r="5" fill="#ffffff" stroke="#2563eb" stroke-width="2.5"><title>shard_count=4, success_qps=6038.10, avg_us=2648.78, p95_us=6083, p99_us=10366</title></circle>
  <circle cx="818.0" cy="177.4" r="5" fill="#ffffff" stroke="#2563eb" stroke-width="2.5"><title>shard_count=8, success_qps=6766.15, avg_us=2363.32, p95_us=4814, p99_us=9733</title></circle>
<text x="453.0" y="452" text-anchor="middle" font-size="13" class="label">shard_count</text>
<text x="22" y="235.0" text-anchor="middle" font-size="13" class="label" transform="rotate(-90 22 235.0)">success_qps</text>
</svg>
