<svg xmlns="http://www.w3.org/2000/svg" width="906" height="470" viewBox="0 0 906 470" role="img" aria-labelledby="title desc">
  <title id="title">Put QPS by Replica Count</title>
  <desc id="desc">success_qps benchmark chart for replica_count</desc>
  <style>
    .axis { stroke: #334155; stroke-width: 1.2; }
    .grid { stroke: #e2e8f0; stroke-width: 1; }
    .label { fill: #334155; font-family: -apple-system, BlinkMacSystemFont, 'Segoe UI', sans-serif; }
    .title { fill: #0f172a; font-weight: 700; font-family: -apple-system, BlinkMacSystemFont, 'Segoe UI', sans-serif; }
  </style>
  <rect width="100%" height="100%" fill="#ffffff"/>
  <text x="453.0" y="30" text-anchor="middle" font-size="18" class="title">Put QPS by Replica Count</text>
  <line x1="88" y1="390.0" x2="818" y2="390.0" class="grid"/>
  <text x="76" y="394.0" text-anchor="end" font-size="12" class="label">0</text>
  <line x1="88" y1="322.8" x2="818" y2="322.8" class="grid"/>
  <text x="76" y="326.8" text-anchor="end" font-size="12" class="label">5500</text>
  <line x1="88" y1="255.6" x2="818" y2="255.6" class="grid"/>
  <text x="76" y="259.6" text-anchor="end" font-size="12" class="label">11000</text>
  <line x1="88" y1="188.4" x2="818" y2="188.4" class="grid"/>
  <text x="76" y="192.4" text-anchor="end" font-size="12" class="label">16500</text>
  <line x1="88" y1="121.2" x2="818" y2="121.2" class="grid"/>
  <text x="76" y="125.2" text-anchor="end" font-size="12" class="label">22000</text>
  <line x1="88" y1="54.0" x2="818" y2="54.0" class="grid"/>
  <text x="76" y="58.0" text-anchor="end" font-size="12" class="label">27500</text>
  <line x1="88" y1="390" x2="818" y2="390" class="axis"/>
  <line x1="88" y1="54" x2="88" y2="390" class="axis"/>
  <polyline points="88.0,129.7 453.0,270.7 818.0,330.9" fill="none" stroke="#2563eb" stroke-width="3" stroke-linejoin="round" stroke-linecap="round"/>
  <circle cx="88.0" cy="129.7" r="5" fill="#ffffff" stroke="#2563eb" stroke-width="2.5"><title>replica_count=1, success_qps=21304.98, avg_us=749.93, p95_us=1117, p99_us=2822</title></circle>
  <text x="88.0" y="418" text-anchor="middle" font-size="12" class="label">1</text>
  <circle cx="453.0" cy="270.7" r="5" fill="#ffffff" stroke="#2563eb" stroke-width="2.5"><title>replica_count=3, success_qps=9765.28, avg_us=1637.20, p95_us=2588, p99_us=6041</title></circle>
  <text x="453.0" y="418" text-anchor="middle" font-size="12" class="label">3</text>
  <circle cx="818.0" cy="330.9" r="5" fill="#ffffff" stroke="#2563eb" stroke-width="2.5"><title>replica_count=5, success_qps=4836.82, avg_us=3306.39, p95_us=7108, p99_us=13060</title></circle>
  <text x="818.0" y="418" text-anchor="middle" font-size="12" class="label">5</text>
<text x="453.0" y="452" text-anchor="middle" font-size="13" class="label">replica_count</text>
<text x="22" y="222.0" text-anchor="middle" font-size="13" class="label" transform="rotate(-90 22 222.0)">success_qps</text>
</svg>
