<svg xmlns="http://www.w3.org/2000/svg" width="860" height="480" viewBox="0 0 860 480" role="img" aria-labelledby="title desc">
  <title id="title">Put Value Size</title>
  <desc id="desc">success_qps benchmark chart for value_size bytes</desc>
  <rect width="100%" height="100%" fill="#ffffff"/>
  <style>text{font-family:Arial,sans-serif}.axis{stroke:#374151}.grid{stroke:#e5e7eb}.tick{fill:#6b7280}.label{fill:#374151}.qps-label{fill:#111827;font-size:11px;font-weight:600}</style>
<text x="88" y="34" font-size="20" font-weight="700" fill="#111827">Put Value Size</text>
  <rect x="88" y="72" width="730" height="326" fill="#f9fafb" stroke="#e5e7eb" stroke-width="1"/>
<line x1="88" y1="398.0" x2="818" y2="398.0" class="grid" stroke-width="1"/>
<text x="76" y="402.0" text-anchor="end" font-size="12" class="tick">0</text>
<line x1="88" y1="332.8" x2="818" y2="332.8" class="grid" stroke-width="1"/>
<text x="76" y="336.8" text-anchor="end" font-size="12" class="tick">2000</text>
<line x1="88" y1="267.6" x2="818" y2="267.6" class="grid" stroke-width="1"/>
<text x="76" y="271.6" text-anchor="end" font-size="12" class="tick">4000</text>
<line x1="88" y1="202.4" x2="818" y2="202.4" class="grid" stroke-width="1"/>
<text x="76" y="206.4" text-anchor="end" font-size="12" class="tick">6000</text>
<line x1="88" y1="137.2" x2="818" y2="137.2" class="grid" stroke-width="1"/>
<text x="76" y="141.2" text-anchor="end" font-size="12" class="tick">8000</text>
<line x1="88" y1="72.0" x2="818" y2="72.0" class="grid" stroke-width="1"/>
<text x="76" y="76.0" text-anchor="end" font-size="12" class="tick">10000</text>
<line x1="88" y1="72" x2="88" y2="398" class="axis" stroke-width="1.2"/>
<line x1="88" y1="398" x2="818" y2="398" class="axis" stroke-width="1.2"/>
<line x1="88.0" y1="398" x2="88.0" y2="404" class="axis" stroke-width="1"/>
<text x="88.0" y="423" text-anchor="middle" font-size="12" fill="#374151">16</text>
<line x1="234.0" y1="398" x2="234.0" y2="404" class="axis" stroke-width="1"/>
<text x="234.0" y="423" text-anchor="middle" font-size="12" fill="#374151">64</text>
<line x1="380.0" y1="398" x2="380.0" y2="404" class="axis" stroke-width="1"/>
<text x="380.0" y="423" text-anchor="middle" font-size="12" fill="#374151">128</text>
<line x1="526.0" y1="398" x2="526.0" y2="404" class="axis" stroke-width="1"/>
<text x="526.0" y="423" text-anchor="middle" font-size="12" fill="#374151">512</text>
<line x1="672.0" y1="398" x2="672.0" y2="404" class="axis" stroke-width="1"/>
<text x="672.0" y="423" text-anchor="middle" font-size="12" fill="#374151">1024</text>
<line x1="818.0" y1="398" x2="818.0" y2="404" class="axis" stroke-width="1"/>
<text x="818.0" y="423" text-anchor="middle" font-size="12" fill="#374151">4096</text>
  <polyline fill="none" stroke="#2563eb" stroke-width="3" stroke-linecap="round" stroke-linejoin="round" points="88.0,136.4 234.0,175.9 380.0,176.2 526.0,173.1 672.0,222.6 818.0,277.1"/>
  <rect x="92.0" y="106.4" width="47.0" height="20" rx="4" fill="#ffffff" stroke="#d1d5db" stroke-width="1"/>
<text x="115.5" y="120.4" text-anchor="middle" class="qps-label">8,024</text>
  <rect x="210.5" y="145.9" width="47.0" height="20" rx="4" fill="#ffffff" stroke="#d1d5db" stroke-width="1"/>
<text x="234.0" y="159.9" text-anchor="middle" class="qps-label">6,813</text>
  <rect x="356.5" y="146.2" width="47.0" height="20" rx="4" fill="#ffffff" stroke="#d1d5db" stroke-width="1"/>
<text x="380.0" y="160.2" text-anchor="middle" class="qps-label">6,803</text>
  <rect x="502.5" y="143.1" width="47.0" height="20" rx="4" fill="#ffffff" stroke="#d1d5db" stroke-width="1"/>
<text x="526.0" y="157.1" text-anchor="middle" class="qps-label">6,899</text>
  <rect x="648.5" y="192.6" width="47.0" height="20" rx="4" fill="#ffffff" stroke="#d1d5db" stroke-width="1"/>
<text x="672.0" y="206.6" text-anchor="middle" class="qps-label">5,381</text>
  <rect x="767.0" y="247.1" width="47.0" height="20" rx="4" fill="#ffffff" stroke="#d1d5db" stroke-width="1"/>
<text x="790.5" y="261.1" text-anchor="middle" class="qps-label">3,707</text>
  <circle cx="88.0" cy="136.4" r="5" fill="#ffffff" stroke="#2563eb" stroke-width="2.5"><title>value_size bytes=16, success_qps=8023.63, avg_us=1992.33, p95_us=2964, p99_us=5495</title></circle>
  <circle cx="234.0" cy="175.9" r="5" fill="#ffffff" stroke="#2563eb" stroke-width="2.5"><title>value_size bytes=64, success_qps=6812.90, avg_us=2346.97, p95_us=3929, p99_us=7252</title></circle>
  <circle cx="380.0" cy="176.2" r="5" fill="#ffffff" stroke="#2563eb" stroke-width="2.5"><title>value_size bytes=128, success_qps=6802.80, avg_us=2350.80, p95_us=3954, p99_us=7385</title></circle>
  <circle cx="526.0" cy="173.1" r="5" fill="#ffffff" stroke="#2563eb" stroke-width="2.5"><title>value_size bytes=512, success_qps=6898.95, avg_us=2317.98, p95_us=3808, p99_us=7209</title></circle>
  <circle cx="672.0" cy="222.6" r="5" fill="#ffffff" stroke="#2563eb" stroke-width="2.5"><title>value_size bytes=1024, success_qps=5380.52, avg_us=2972.06, p95_us=5785, p99_us=10073</title></circle>
  <circle cx="818.0" cy="277.1" r="5" fill="#ffffff" stroke="#2563eb" stroke-width="2.5"><title>value_size bytes=4096, success_qps=3707.30, avg_us=4314.25, p95_us=9225, p99_us=13215</title></circle>
<text x="453.0" y="452" text-anchor="middle" font-size="13" class="label">value_size bytes</text>
<text x="22" y="235.0" text-anchor="middle" font-size="13" class="label" transform="rotate(-90 22 235.0)">success_qps</text>
</svg>
