<svg xmlns="http://www.w3.org/2000/svg" width="906" height="470" viewBox="0 0 906 470" role="img" aria-labelledby="title desc">
  <title id="title">Put QPS by Shard Count</title>
  <desc id="desc">success_qps benchmark chart for shard_count</desc>
  <style>
    .axis { stroke: #334155; stroke-width: 1.2; }
    .grid { stroke: #e2e8f0; stroke-width: 1; }
    .label { fill: #334155; font-family: -apple-system, BlinkMacSystemFont, 'Segoe UI', sans-serif; }
    .title { fill: #0f172a; font-weight: 700; font-family: -apple-system, BlinkMacSystemFont, 'Segoe UI', sans-serif; }
  </style>
  <rect width="100%" height="100%" fill="#ffffff"/>
  <text x="453.0" y="30" text-anchor="middle" font-size="18" class="title">Put QPS by Shard Count</text>
  <line x1="88" y1="390.0" x2="818" y2="390.0" class="grid"/>
  <text x="76" y="394.0" text-anchor="end" font-size="12" class="label">0</text>
  <line x1="88" y1="322.8" x2="818" y2="322.8" class="grid"/>
  <text x="76" y="326.8" text-anchor="end" font-size="12" class="label">2500</text>
  <line x1="88" y1="255.6" x2="818" y2="255.6" class="grid"/>
  <text x="76" y="259.6" text-anchor="end" font-size="12" class="label">5000</text>
  <line x1="88" y1="188.4" x2="818" y2="188.4" class="grid"/>
  <text x="76" y="192.4" text-anchor="end" font-size="12" class="label">7500</text>
  <line x1="88" y1="121.2" x2="818" y2="121.2" class="grid"/>
  <text x="76" y="125.2" text-anchor="end" font-size="12" class="label">10000</text>
  <line x1="88" y1="54.0" x2="818" y2="54.0" class="grid"/>
  <text x="76" y="58.0" text-anchor="end" font-size="12" class="label">12500</text>
  <line x1="88" y1="390" x2="818" y2="390" class="axis"/>
  <line x1="88" y1="54" x2="88" y2="390" class="axis"/>
  <polyline points="88.0,114.5 331.3,146.5 574.7,202.0 818.0,212.0" fill="none" stroke="#2563eb" stroke-width="3" stroke-linejoin="round" stroke-linecap="round"/>
  <circle cx="88.0" cy="114.5" r="5" fill="#ffffff" stroke="#2563eb" stroke-width="2.5"><title>shard_count=1, success_qps=10249.46, avg_us=1559.98, p95_us=2233, p99_us=6428</title></circle>
  <text x="88.0" y="418" text-anchor="middle" font-size="12" class="label">1</text>
  <circle cx="331.3" cy="146.5" r="5" fill="#ffffff" stroke="#2563eb" stroke-width="2.5"><title>shard_count=2, success_qps=9058.31, avg_us=1764.88, p95_us=3040, p99_us=5683</title></circle>
  <text x="331.3" y="418" text-anchor="middle" font-size="12" class="label">2</text>
  <circle cx="574.7" cy="202.0" r="5" fill="#ffffff" stroke="#2563eb" stroke-width="2.5"><title>shard_count=4, success_qps=6995.72, avg_us=2285.48, p95_us=5404, p99_us=8430</title></circle>
  <text x="574.7" y="418" text-anchor="middle" font-size="12" class="label">4</text>
  <circle cx="818.0" cy="212.0" r="5" fill="#ffffff" stroke="#2563eb" stroke-width="2.5"><title>shard_count=8, success_qps=6620.59, avg_us=2414.43, p95_us=6847, p99_us=11808</title></circle>
  <text x="818.0" y="418" text-anchor="middle" font-size="12" class="label">8</text>
<text x="453.0" y="452" text-anchor="middle" font-size="13" class="label">shard_count</text>
<text x="22" y="222.0" text-anchor="middle" font-size="13" class="label" transform="rotate(-90 22 222.0)">success_qps</text>
</svg>
