<svg xmlns="http://www.w3.org/2000/svg" width="906" height="470" viewBox="0 0 906 470" role="img" aria-labelledby="title desc">
  <title id="title">Put QPS by Value Size</title>
  <desc id="desc">success_qps benchmark chart for value_size bytes</desc>
  <style>
    .axis { stroke: #334155; stroke-width: 1.2; }
    .grid { stroke: #e2e8f0; stroke-width: 1; }
    .label { fill: #334155; font-family: -apple-system, BlinkMacSystemFont, 'Segoe UI', sans-serif; }
    .title { fill: #0f172a; font-weight: 700; font-family: -apple-system, BlinkMacSystemFont, 'Segoe UI', sans-serif; }
  </style>
  <rect width="100%" height="100%" fill="#ffffff"/>
  <text x="453.0" y="30" text-anchor="middle" font-size="18" class="title">Put QPS by Value Size</text>
  <line x1="88" y1="390.0" x2="818" y2="390.0" class="grid"/>
  <text x="76" y="394.0" text-anchor="end" font-size="12" class="label">0</text>
  <line x1="88" y1="322.8" x2="818" y2="322.8" class="grid"/>
  <text x="76" y="326.8" text-anchor="end" font-size="12" class="label">2500</text>
  <line x1="88" y1="255.6" x2="818" y2="255.6" class="grid"/>
  <text x="76" y="259.6" text-anchor="end" font-size="12" class="label">5000</text>
  <line x1="88" y1="188.4" x2="818" y2="188.4" class="grid"/>
  <text x="76" y="192.4" text-anchor="end" font-size="12" class="label">7500</text>
  <line x1="88" y1="121.2" x2="818" y2="121.2" class="grid"/>
  <text x="76" y="125.2" text-anchor="end" font-size="12" class="label">10000</text>
  <line x1="88" y1="54.0" x2="818" y2="54.0" class="grid"/>
  <text x="76" y="58.0" text-anchor="end" font-size="12" class="label">12500</text>
  <line x1="88" y1="390" x2="818" y2="390" class="axis"/>
  <line x1="88" y1="54" x2="88" y2="390" class="axis"/>
  <polyline points="88.0,108.5 234.0,131.1 380.0,127.4 526.0,145.8 672.0,170.0 818.0,277.3" fill="none" stroke="#2563eb" stroke-width="3" stroke-linejoin="round" stroke-linecap="round"/>
  <circle cx="88.0" cy="108.5" r="5" fill="#ffffff" stroke="#2563eb" stroke-width="2.5"><title>value_size bytes=16, success_qps=10470.97, avg_us=1526.82, p95_us=2473, p99_us=5518</title></circle>
  <text x="88.0" y="418" text-anchor="middle" font-size="12" class="label">16</text>
  <circle cx="234.0" cy="131.1" r="5" fill="#ffffff" stroke="#2563eb" stroke-width="2.5"><title>value_size bytes=64, success_qps=9631.98, avg_us=1659.94, p95_us=2763, p99_us=5717</title></circle>
  <text x="234.0" y="418" text-anchor="middle" font-size="12" class="label">64</text>
  <circle cx="380.0" cy="127.4" r="5" fill="#ffffff" stroke="#2563eb" stroke-width="2.5"><title>value_size bytes=128, success_qps=9767.49, avg_us=1636.92, p95_us=2603, p99_us=5900</title></circle>
  <text x="380.0" y="418" text-anchor="middle" font-size="12" class="label">128</text>
  <circle cx="526.0" cy="145.8" r="5" fill="#ffffff" stroke="#2563eb" stroke-width="2.5"><title>value_size bytes=512, success_qps=9085.66, avg_us=1759.68, p95_us=2927, p99_us=6064</title></circle>
  <text x="526.0" y="418" text-anchor="middle" font-size="12" class="label">512</text>
  <circle cx="672.0" cy="170.0" r="5" fill="#ffffff" stroke="#2563eb" stroke-width="2.5"><title>value_size bytes=1024, success_qps=8183.90, avg_us=1953.84, p95_us=3893, p99_us=6890</title></circle>
  <text x="672.0" y="418" text-anchor="middle" font-size="12" class="label">1024</text>
  <circle cx="818.0" cy="277.3" r="5" fill="#ffffff" stroke="#2563eb" stroke-width="2.5"><title>value_size bytes=4096, success_qps=4192.82, avg_us=3814.00, p95_us=9694, p99_us=14826</title></circle>
  <text x="818.0" y="418" text-anchor="middle" font-size="12" class="label">4096</text>
<text x="453.0" y="452" text-anchor="middle" font-size="13" class="label">value_size bytes</text>
<text x="22" y="222.0" text-anchor="middle" font-size="13" class="label" transform="rotate(-90 22 222.0)">success_qps</text>
</svg>
