<svg xmlns="http://www.w3.org/2000/svg" width="860" height="480" viewBox="0 0 860 480" role="img" aria-labelledby="title desc">
  <title id="title">Put Replica Count</title>
  <desc id="desc">success_qps benchmark chart for replica_count</desc>
  <rect width="100%" height="100%" fill="#ffffff"/>
  <style>text{font-family:Arial,sans-serif}.axis{stroke:#374151}.grid{stroke:#e5e7eb}.tick{fill:#6b7280}.label{fill:#374151}.qps-label{fill:#111827;font-size:11px;font-weight:600}</style>
<text x="88" y="34" font-size="20" font-weight="700" fill="#111827">Put Replica Count</text>
  <rect x="88" y="72" width="730" height="326" fill="#f9fafb" stroke="#e5e7eb" stroke-width="1"/>
<line x1="88" y1="398.0" x2="818" y2="398.0" class="grid" stroke-width="1"/>
<text x="76" y="402.0" text-anchor="end" font-size="12" class="tick">0</text>
<line x1="88" y1="316.5" x2="818" y2="316.5" class="grid" stroke-width="1"/>
<text x="76" y="320.5" text-anchor="end" font-size="12" class="tick">5000</text>
<line x1="88" y1="235.0" x2="818" y2="235.0" class="grid" stroke-width="1"/>
<text x="76" y="239.0" text-anchor="end" font-size="12" class="tick">10000</text>
<line x1="88" y1="153.5" x2="818" y2="153.5" class="grid" stroke-width="1"/>
<text x="76" y="157.5" text-anchor="end" font-size="12" class="tick">15000</text>
<line x1="88" y1="72.0" x2="818" y2="72.0" class="grid" stroke-width="1"/>
<text x="76" y="76.0" text-anchor="end" font-size="12" class="tick">20000</text>
<line x1="88" y1="72" x2="88" y2="398" class="axis" stroke-width="1.2"/>
<line x1="88" y1="398" x2="818" y2="398" class="axis" stroke-width="1.2"/>
<line x1="88.0" y1="398" x2="88.0" y2="404" class="axis" stroke-width="1"/>
<text x="88.0" y="423" text-anchor="middle" font-size="12" fill="#374151">1</text>
<line x1="453.0" y1="398" x2="453.0" y2="404" class="axis" stroke-width="1"/>
<text x="453.0" y="423" text-anchor="middle" font-size="12" fill="#374151">3</text>
<line x1="818.0" y1="398" x2="818.0" y2="404" class="axis" stroke-width="1"/>
<text x="818.0" y="423" text-anchor="middle" font-size="12" fill="#374151">5</text>
  <polyline fill="none" stroke="#2563eb" stroke-width="3" stroke-linecap="round" stroke-linejoin="round" points="88.0,139.4 453.0,259.9 818.0,311.6"/>
  <rect x="92.0" y="109.4" width="54.0" height="20" rx="4" fill="#ffffff" stroke="#d1d5db" stroke-width="1"/>
<text x="119.0" y="123.4" text-anchor="middle" class="qps-label">15,863</text>
  <rect x="429.5" y="229.9" width="47.0" height="20" rx="4" fill="#ffffff" stroke="#d1d5db" stroke-width="1"/>
<text x="453.0" y="243.9" text-anchor="middle" class="qps-label">8,470</text>
  <rect x="767.0" y="281.6" width="47.0" height="20" rx="4" fill="#ffffff" stroke="#d1d5db" stroke-width="1"/>
<text x="790.5" y="295.6" text-anchor="middle" class="qps-label">5,298</text>
  <circle cx="88.0" cy="139.4" r="5" fill="#ffffff" stroke="#2563eb" stroke-width="2.5"><title>replica_count=1, success_qps=15862.52, avg_us=1007.59, p95_us=1388, p99_us=2163</title></circle>
  <circle cx="453.0" cy="259.9" r="5" fill="#ffffff" stroke="#2563eb" stroke-width="2.5"><title>replica_count=3, success_qps=8469.99, avg_us=1887.74, p95_us=2985, p99_us=6119</title></circle>
  <circle cx="818.0" cy="311.6" r="5" fill="#ffffff" stroke="#2563eb" stroke-width="2.5"><title>replica_count=5, success_qps=5297.95, avg_us=3018.88, p95_us=6169, p99_us=11124</title></circle>
<text x="453.0" y="452" text-anchor="middle" font-size="13" class="label">replica_count</text>
<text x="22" y="235.0" text-anchor="middle" font-size="13" class="label" transform="rotate(-90 22 235.0)">success_qps</text>
</svg>
