<svg xmlns="http://www.w3.org/2000/svg" width="906" height="470" viewBox="0 0 906 470" role="img" aria-labelledby="title desc">
  <title id="title">Put QPS by Threads</title>
  <desc id="desc">success_qps benchmark chart for threads</desc>
  <style>
    .axis { stroke: #334155; stroke-width: 1.2; }
    .grid { stroke: #e2e8f0; stroke-width: 1; }
    .label { fill: #334155; font-family: -apple-system, BlinkMacSystemFont, 'Segoe UI', sans-serif; }
    .title { fill: #0f172a; font-weight: 700; font-family: -apple-system, BlinkMacSystemFont, 'Segoe UI', sans-serif; }
  </style>
  <rect width="100%" height="100%" fill="#ffffff"/>
  <text x="453.0" y="30" text-anchor="middle" font-size="18" class="title">Put QPS by Threads</text>
  <line x1="88" y1="390.0" x2="818" y2="390.0" class="grid"/>
  <text x="76" y="394.0" text-anchor="end" font-size="12" class="label">0</text>
  <line x1="88" y1="322.8" x2="818" y2="322.8" class="grid"/>
  <text x="76" y="326.8" text-anchor="end" font-size="12" class="label">2400</text>
  <line x1="88" y1="255.6" x2="818" y2="255.6" class="grid"/>
  <text x="76" y="259.6" text-anchor="end" font-size="12" class="label">4800</text>
  <line x1="88" y1="188.4" x2="818" y2="188.4" class="grid"/>
  <text x="76" y="192.4" text-anchor="end" font-size="12" class="label">7200</text>
  <line x1="88" y1="121.2" x2="818" y2="121.2" class="grid"/>
  <text x="76" y="125.2" text-anchor="end" font-size="12" class="label">9600</text>
  <line x1="88" y1="54.0" x2="818" y2="54.0" class="grid"/>
  <text x="76" y="58.0" text-anchor="end" font-size="12" class="label">12000</text>
  <line x1="88" y1="390" x2="818" y2="390" class="axis"/>
  <line x1="88" y1="54" x2="88" y2="390" class="axis"/>
  <polyline points="88.0,355.1 234.0,315.8 380.0,260.1 526.0,169.1 672.0,115.6 818.0,108.0" fill="none" stroke="#2563eb" stroke-width="3" stroke-linejoin="round" stroke-linecap="round"/>
  <circle cx="88.0" cy="355.1" r="5" fill="#ffffff" stroke="#2563eb" stroke-width="2.5"><title>threads=1, success_qps=1246.25, avg_us=801.82, p95_us=972, p99_us=1282</title></circle>
  <text x="88.0" y="418" text-anchor="middle" font-size="12" class="label">1</text>
  <circle cx="234.0" cy="315.8" r="5" fill="#ffffff" stroke="#2563eb" stroke-width="2.5"><title>threads=2, success_qps=2648.37, avg_us=754.56, p95_us=999, p99_us=1161</title></circle>
  <text x="234.0" y="418" text-anchor="middle" font-size="12" class="label">2</text>
  <circle cx="380.0" cy="260.1" r="5" fill="#ffffff" stroke="#2563eb" stroke-width="2.5"><title>threads=4, success_qps=4640.35, avg_us=861.33, p95_us=1243, p99_us=1857</title></circle>
  <text x="380.0" y="418" text-anchor="middle" font-size="12" class="label">4</text>
  <circle cx="526.0" cy="169.1" r="5" fill="#ffffff" stroke="#2563eb" stroke-width="2.5"><title>threads=8, success_qps=7889.13, avg_us=1013.22, p95_us=1630, p99_us=2957</title></circle>
  <text x="526.0" y="418" text-anchor="middle" font-size="12" class="label">8</text>
  <circle cx="672.0" cy="115.6" r="5" fill="#ffffff" stroke="#2563eb" stroke-width="2.5"><title>threads=16, success_qps=9799.99, avg_us=1631.30, p95_us=2577, p99_us=5623</title></circle>
  <text x="672.0" y="418" text-anchor="middle" font-size="12" class="label">16</text>
  <circle cx="818.0" cy="108.0" r="5" fill="#ffffff" stroke="#2563eb" stroke-width="2.5"><title>threads=32, success_qps=10073.04, avg_us=3173.94, p95_us=6353, p99_us=13534</title></circle>
  <text x="818.0" y="418" text-anchor="middle" font-size="12" class="label">32</text>
<text x="453.0" y="452" text-anchor="middle" font-size="13" class="label">threads</text>
<text x="22" y="222.0" text-anchor="middle" font-size="13" class="label" transform="rotate(-90 22 222.0)">success_qps</text>
</svg>
